Coordinates
version=1
nRows=17
nColumns=34
inDegrees=yes

Units are S.I. units (second, meters, Newtons, ...)
If the header above contains a line with 'inDegrees', this indicates whether rotational values are in degrees (yes) or radians (no).

endheader
time	pelvis_tilt	pelvis_list	pelvis_rotation	pelvis_tx	pelvis_ty	pelvis_tz	hip_flexion_r	hip_adduction_r	hip_rotation_r	knee_angle_r	ankle_angle_r	subtalar_angle_r	mtp_angle_r	hip_flexion_l	hip_adduction_l	hip_rotation_l	knee_angle_l	ankle_angle_l	subtalar_angle_l	mtp_angle_l	lumbar_extension	lumbar_bending	lumbar_rotation	arm_flex_r	arm_add_r	arm_rot_r	elbow_flex_r	pro_sup_r	arm_flex_l	arm_add_l	arm_rot_l	elbow_flex_l	pro_sup_l
      0.00000000	     -1.53996372	      0.16582174	     -1.88160744	      1.74721823	      0.87358894	     -0.09707019	     -0.50323765	     -3.55320246	     -0.45427053	      5.10216192	      3.82447527	    -14.63146110	      0.00000000	     -1.94318374	     -5.54148884	     -5.31372948	      4.64717555	      7.81868370	     -3.63670614	      0.00000000	     -6.99717085	      2.08315456	     -4.51551070	     11.95556050	     -8.77349072	     39.96160001	     88.82725774	     99.58014787	      2.01187619	     -7.45142324	     27.06574136	     89.64105027	     96.82057032
      0.01666670	     -3.35870866	      0.33294411	     -1.99745197	      1.74907959	      0.87202160	     -0.09789601	      1.79219961	     -3.47819512	      1.06988509	      5.48089532	      7.38445825	    -12.80040812	      0.00000000	      1.02403606	     -5.08604497	     -4.90824151	      5.42242666	      8.69160114	     -2.46545758	      0.00000000	     -4.28023736	      2.41948896	     -4.05395576	     10.06935234	     -9.12317015	     37.72971077	     89.34173920	     98.81505322	      1.09420262	     -7.57171929	     27.02240246	     89.53014425	     96.21714243
      0.03333330	     -3.41351329	      0.98407195	     -2.24842832	      1.74900749	      0.87217081	     -0.09735314	      1.55256256	     -4.32228616	      1.01990473	      4.77997417	      7.53308028	    -12.62471105	      0.00000000	      1.00178951	     -4.55703624	     -5.21596717	      5.10212293	      8.26705402	     -2.26429532	      0.00000000	     -4.05190399	      1.66773119	     -3.47131752	      9.83116299	     -9.02846441	     37.38167749	     88.85424276	     98.61612248	      1.50139971	     -7.87034182	     26.92754648	     88.79229905	     95.91344780
      0.05000000	     -3.11022185	      1.46397534	     -2.26791374	      1.74891666	      0.87337584	     -0.09699369	      0.95681793	     -4.93861052	      1.41515804	      4.29618153	      7.97445361	    -12.66589958	      0.00000000	      0.24520200	     -4.02376265	     -4.90499198	      4.47035841	      8.15143535	     -2.63019537	      0.00000000	     -4.33831262	      1.02807452	     -3.04760158	      9.47074142	     -9.06227878	     37.40593506	     88.32854818	     98.50911165	      1.90657676	     -7.95293604	     27.09211021	     88.17818965	     95.73952781
      0.06666670	     -3.14227093	      1.60643661	     -2.22696775	      1.74873510	      0.87378830	     -0.09671781	      0.82785771	     -5.05145015	      1.48173791	      3.94230676	      8.15182231	    -12.75533411	      0.00000000	      0.19515235	     -3.90820196	     -4.84676578	      4.26246764	      8.18985903	     -2.74043690	      0.00000000	     -4.38413729	      1.03981240	     -2.89364114	      9.44751566	     -8.87310639	     37.52510693	     88.35158190	     98.50004197	      2.07930818	     -8.02038116	     27.10777130	     88.11954846	     95.72506181
      0.08333330	     -2.08594675	      1.81054805	     -2.27338798	      1.74870346	      0.87564116	     -0.09619546	     -0.63500512	     -5.23366371	      2.07256909	      3.33622757	      8.03562875	    -13.59736954	      0.00000000	     -1.31560432	     -3.59479789	     -3.89388346	      3.60682871	      7.46431378	     -4.09629068	      0.00000000	     -5.45041212	      0.62719054	     -2.41105078	      9.80199976	     -8.97732708	     38.10299398	     88.56100464	     98.30385533	      3.19455509	     -8.16581473	     28.61356803	     87.28536791	     95.66550598
      0.10000000	     -2.08119779	      1.84209528	     -2.27184971	      1.74876195	      0.87601651	     -0.09591674	     -0.63145438	     -5.21981871	      2.07662129	      3.32078317	      8.03966548	    -13.60072298	      0.00000000	     -1.32204843	     -3.59361735	     -3.88771131	      3.61506935	      7.46320863	     -4.09784896	      0.00000000	     -5.44561020	      0.62525446	     -2.41069601	      9.80317701	     -8.96941857	     38.10578964	     88.56764253	     98.30301221	      3.19733255	     -8.15712260	     28.62048685	     87.28684481	     95.66537142
      0.11666670	     -1.68202848	      2.02731772	     -2.08986655	      1.74888440	      0.87675748	     -0.09602374	     -1.47370914	     -5.40049883	      2.47803106	      2.61303504	      7.69639666	    -14.73481726	      0.00000000	     -1.75675057	     -3.35291813	     -2.90089940	      3.58554214	      7.18600666	     -5.05433640	      0.00000000	     -5.89637244	      0.33832347	     -2.28927227	      9.87082726	     -9.02536190	     38.46276675	     89.50812178	     98.04611929	      3.84768312	     -8.32033958	     29.74376972	     86.87124645	     95.59311436
      0.13333330	     -1.68130615	      2.04471489	     -2.08783186	      1.74881136	      0.87727440	     -0.09582799	     -1.46681826	     -5.38433719	      2.48396139	      2.60355699	      7.69594311	    -14.73532225	      0.00000000	     -1.76455526	     -3.34915476	     -2.89899963	      3.59325625	      7.17988524	     -5.05450691	      0.00000000	     -5.89629342	      0.33763209	     -2.29140264	      9.86880440	     -9.02432938	     38.46420979	     89.51006583	     98.04514366	      3.85265736	     -8.31438823	     29.74680733	     86.87191175	     95.59262357
      0.15000000	     -1.32480357	      2.06392701	     -2.04392800	      1.74864075	      0.87829904	     -0.09574931	     -2.11656904	     -5.37669880	      3.10297020	      2.08548075	      6.95682565	    -15.74785893	      0.00000000	     -2.25754422	     -3.29397182	     -2.33493918	      3.34675779	      6.36446533	     -5.82400874	      0.00000000	     -6.37320624	      0.26755984	     -1.99790324	      9.80229405	     -9.31558922	     38.80020617	     90.20766135	     97.67349641	      4.54501081	     -8.29218720	     30.50079291	     86.29045506	     95.36425667
      0.16666670	     -1.32932253	      2.07631758	     -2.03869692	      1.74880158	      0.87850521	     -0.09559066	     -2.11269709	     -5.35207500	      3.10518289	      2.07755876	      6.95783218	    -15.74948680	      0.00000000	     -2.25963115	     -3.27954488	     -2.33392714	      3.34919763	      6.36176063	     -5.82360911	      0.00000000	     -6.37743608	      0.26859082	     -1.99620466	      9.80117149	     -9.31860545	     38.80003359	     90.20737374	     97.67236701	      4.54888866	     -8.29724330	     30.49906176	     86.28933022	     95.36327485
      0.18333330	     -1.38850058	      2.08397912	     -1.95533785	      1.74899662	      0.87823828	     -0.09540763	     -2.13367426	     -5.29791893	      3.18501309	      1.90505351	      6.95510242	    -15.77821526	      0.00000000	     -2.19304368	     -3.28990079	     -2.26773741	      3.29620660	      6.25679699	     -5.78314220	      0.00000000	     -6.47385915	      0.28174243	     -1.95629532	      9.74817626	     -9.40109956	     38.82701734	     90.20867842	     97.65313307	      4.65407123	     -8.47335024	     30.42764903	     86.24543370	     95.34215178
      0.20000000	     -1.38405455	      2.08425937	     -1.95449448	      1.74911890	      0.87779736	     -0.09542530	     -2.13070247	     -5.30008849	      3.18595562	      1.90172257	      6.95461673	    -15.77863054	      0.00000000	     -2.19503880	     -3.29293618	     -2.26633018	      3.29715469	      6.25496026	     -5.78229341	      0.00000000	     -6.47354313	      0.28214853	     -1.95649604	      9.74747109	     -9.40191022	     38.82751603	     90.20918229	     97.65290278	      4.65553827	     -8.47465643	     30.42707446	     86.24510941	     95.34189159
      0.21666670	     -1.05339023	      2.05152979	     -1.83399924	      1.74948944	      0.87809805	     -0.09552574	     -2.89199867	     -5.26087833	      3.68682259	      1.18008375	      5.89565700	    -16.96000587	      0.00000000	     -2.76801400	     -3.33233835	     -1.67128635	      2.90990100	      5.49491452	     -6.09575215	      0.00000000	     -6.83315150	      0.37405495	     -1.82491706	      9.65470558	     -9.87178742	     39.32058330	     91.11533298	     97.20948852	      5.16062619	     -8.75311391	     30.70656119	     85.76546854	     94.90918860
      0.23333330	     -1.07838977	      2.05801831	     -1.85239378	      1.74965990	      0.87820451	     -0.09542776	     -2.91403205	     -5.25934991	      3.77761791	      1.06804683	      5.96783027	    -17.02565415	      0.00000000	     -2.76874773	     -3.34868611	     -1.58721553	      2.92091408	      5.44262193	     -6.05172007	      0.00000000	     -6.80917143	      0.42081980	     -1.82691609	      9.57360088	     -9.90360758	     39.34353905	     91.10389830	     97.17978644	      5.27037189	     -8.78507416	     30.67128888	     85.80209628	     94.87714738
      0.25000000	     -1.08272042	      2.07350592	     -1.83869733	      1.74975366	      0.87831872	     -0.09523433	     -2.91098718	     -5.25975727	      3.78381609	      1.06178534	      5.96835185	    -17.02763115	      0.00000000	     -2.77723975	     -3.36549094	     -1.58274611	      2.92128969	      5.44015779	     -6.04979371	      0.00000000	     -6.80781513	      0.42162847	     -1.82165152	      9.57199720	     -9.90451859	     39.34519336	     91.10486039	     97.17828480	      5.27182549	     -8.78954967	     30.66921066	     85.80254573	     94.87546210
      0.26666670	     -1.08462274	      2.07415285	     -1.83708361	      1.74966073	      0.87824880	     -0.09523343	     -2.91131841	     -5.25911798	      3.78465544	      1.06081469	      5.96843282	    -17.02794648	      0.00000000	     -2.77902766	     -3.36641435	     -1.58178674	      2.92136505	      5.43965162	     -6.04922159	      0.00000000	     -6.80745069	      0.42167528	     -1.82080197	      9.57157057	     -9.90450393	     39.34562023	     91.10506309	     97.17810300	      5.27212046	     -8.79043909	     30.66880235	     85.80263536	     94.87523841
